<svg width="158" height="180" viewBox="0 0 158 180" fill="none" xmlns="http://www.w3.org/2000/svg">

<g id="Bird / BlueParrot / Hit / Impact">
<g id="Group 98">
<g id="Group 84">
<path id="Vector 102" d="M8.70116 173.373C6.49956 158.639 38.6903 137.456 55.0609 128.707C63.9269 123.552 61.0131 129.805 58.4479 133.575C42.783 152.98 10.9027 188.106 8.70116 173.373Z" fill="#3A69B3" style="fill:#3A69B3;fill:color(display-p3 0.2275 0.4118 0.7020);fill-opacity:1;"/>
<path id="Vector 103" d="M25.4244 177.183C22.5454 167.53 47.5106 144.371 60.353 133.999C62.611 131.811 66.7037 129.426 65.0102 137.386C62.8933 147.335 29.0231 189.249 25.4244 177.183Z" fill="#38629A" style="fill:#38629A;fill:color(display-p3 0.2196 0.3843 0.6039);fill-opacity:1;"/>
<path id="Vector 101" d="M0.0218087 156.226C-0.994317 143.694 33.7508 129.412 51.2503 123.838C57.8549 123.16 53.5789 127.366 50.6154 129.553C34.1742 143.666 1.03793 168.758 0.0218087 156.226Z" fill="#3E6FB8" style="fill:#3E6FB8;fill:color(display-p3 0.2431 0.4353 0.7216);fill-opacity:1;"/>
</g>
<g id="Group 86">
<path id="Vector 109" d="M79.8284 74.9376C95.705 40.6441 120.472 39.374 134.867 51.6519C144.051 59.4848 141.37 77.7999 137.366 90.9454C128.515 84.5393 112.338 78.5179 99.0919 92.5077C96.1276 95.6385 93.0375 99.0471 89.8489 102.564C77.235 116.479 63.0785 132.094 49.0641 138.947C45.445 137.306 42.9984 135.669 42.1478 134.634C37.279 128.706 63.9517 109.231 79.8284 74.9376Z" fill="#5B9BEC" style="fill:#5B9BEC;fill:color(display-p3 0.3569 0.6078 0.9255);fill-opacity:1;"/>
<path id="Vector 100" fill-rule="evenodd" clip-rule="evenodd" d="M99.0918 92.5077C112.337 78.518 128.515 84.5394 137.366 90.9455C136.349 94.2845 135.247 97.2899 134.232 99.7053C109.424 154.563 66.1604 146.7 49.064 138.947C63.0784 132.094 77.2349 116.479 89.8488 102.565C93.0374 99.0472 96.1274 95.6386 99.0918 92.5077Z" fill="#F5EDD9" style="fill:#F5EDD9;fill:color(display-p3 0.9608 0.9294 0.8510);fill-opacity:1;"/>
</g>
<g id="Group 87">
<path id="Vector 107" fill-rule="evenodd" clip-rule="evenodd" d="M58.2416 50.4663C56.5249 44.7128 59.5803 40.655 62.709 38.3746C72.2799 52.6902 81.6584 64.1921 87.0259 70.0688C91.5419 83.8992 92.0641 111.644 58.0245 111.983C57.6594 111.987 57.2986 111.989 56.9419 111.991C56.693 111.992 56.4462 111.992 56.2014 111.992L62.5633 103.821C54.2026 102.375 52.8458 93.2131 53.2125 88.8127C45.9833 82.9036 49.1002 77.4449 51.5624 75.4543C46.5333 69.168 51.0909 64.9248 53.9983 63.589C49.1578 54.0967 54.8103 50.8854 58.2416 50.4663Z" fill="#5B9BEC" style="fill:#5B9BEC;fill:color(display-p3 0.3569 0.6078 0.9255);fill-opacity:1;"/>
<path id="Vector 108" d="M33.257 29.4247C29.0976 17.0724 32.8105 8.41003 37.047 3.59467C39.0174 1.35503 42.3423 2.39567 43.6153 5.09346C49.1975 16.924 56.0005 28.3405 62.709 38.3746C59.5803 40.655 56.5249 44.7128 58.2416 50.4663C54.8103 50.8854 49.1578 54.0967 53.9983 63.589C51.0909 64.9248 46.5333 69.168 51.5624 75.4543C49.1002 77.4449 45.9833 82.9036 53.2125 88.8127C52.8458 93.2131 54.2026 102.375 62.5634 103.821L56.2014 111.992C24.0771 111.982 26.5832 102.865 31.9869 98.2233C11.6649 87.5542 17.7332 79.9476 23.3077 77.4779C18.7211 74.7259 9.5903 67.0628 9.75965 58.4259C9.929 49.7891 17.7332 51.158 21.6142 52.9221C17.0276 48.5472 9.16687 37.5112 14.4167 28.3662C19.6666 19.2213 29.1644 25.2615 33.257 29.4247Z" fill="#3864A8" style="fill:#3864A8;fill:color(display-p3 0.2196 0.3922 0.6588);fill-opacity:1;"/>
</g>
<g id="Group 88">
<circle id="Ellipse 35" cx="118.98" cy="67.0217" r="14.3306" fill="white" style="fill:white;fill-opacity:1;"/>
<circle id="Ellipse 36" cx="115.134" cy="64.0219" r="7.89221" fill="black" style="fill:black;fill-opacity:1;"/>
</g>
<path id="Vector 122" d="M138.072 82.1915C136.058 74.4482 138.516 65.7962 139.996 62.4382C154.372 63.3102 156.941 73.7933 156.429 78.9259C149.332 75.1885 141.234 79.5457 138.072 82.1915Z" fill="#EFA157" style="fill:#EFA157;fill:color(display-p3 0.9373 0.6314 0.3412);fill-opacity:1;"/>
<path id="Vector 114" d="M73.7408 136.677C73.7638 136.209 73.5846 135.724 73.2765 135.336C72.9664 134.946 72.5526 134.685 72.0925 134.603C71.6323 134.521 71.1537 134.623 70.7281 134.88C70.3045 135.138 69.9687 135.531 69.8283 135.978C69.8283 135.978 69.8283 135.978 69.8283 135.978C69.7389 136.24 69.6348 136.523 69.5252 136.793C67.4977 141.801 63.3132 145.977 59.2043 146.506C58.9732 146.544 58.7491 146.57 58.517 146.591C57.3244 146.762 56.3105 147.395 55.722 148.438C55.1321 149.475 55.0159 150.835 55.3754 152.135C55.7348 153.435 56.5337 154.542 57.5728 155.129C58.6132 155.72 59.8085 155.743 60.9195 155.277C60.9195 155.277 60.9195 155.277 60.9195 155.277C61.3361 155.118 61.7316 154.949 62.1335 154.762C69.4953 151.231 72.6878 144.211 73.629 137.802C73.6757 137.437 73.7166 137.051 73.7408 136.677Z" fill="#EF9A45" style="fill:#EF9A45;fill:color(display-p3 0.9373 0.6039 0.2706);fill-opacity:1;"/>
<path id="Vector 123" d="M151.648 89.8146C145.503 87.4096 143.954 80.9779 143.948 78.0627C142.096 77.9959 139.008 79.9881 137.696 80.9925C139.274 86.9051 147.655 89.3375 151.648 89.8146Z" fill="#C66B53" style="fill:#C66B53;fill:color(display-p3 0.7765 0.4196 0.3255);fill-opacity:1;"/>
<path id="Vector 124" d="M141.251 93.966C136.012 92.3754 136.779 84.6614 137.817 81.0032C141.885 87.5283 148.659 89.5081 151.538 89.6824C150.292 91.7731 146.491 95.5567 141.251 93.966Z" fill="#54514C" style="fill:#54514C;fill:color(display-p3 0.3294 0.3176 0.2980);fill-opacity:1;"/>
<path id="Vector 115" d="M87.0061 139.312C86.8905 138.858 86.5767 138.447 86.1678 138.167C85.757 137.886 85.2847 137.758 84.8207 137.815C84.3567 137.872 83.9293 138.11 83.5984 138.481C83.2694 138.853 83.064 139.327 83.0613 139.795C83.0613 139.795 83.0613 139.795 83.0613 139.795C83.0531 140.072 83.0368 140.373 83.0113 140.663C82.547 146.046 79.7762 151.268 76.005 152.983C75.7951 153.087 75.5888 153.178 75.373 153.266C74.2834 153.78 73.5008 154.684 73.245 155.853C72.9864 157.018 73.2757 158.353 74.0015 159.489C74.7274 160.625 75.8168 161.449 76.9824 161.704C78.1509 161.963 79.3 161.633 80.2246 160.861C80.2246 160.861 80.2246 160.861 80.2246 160.861C80.576 160.586 80.9044 160.309 81.2334 160.012C87.2306 154.471 88.2166 146.823 87.2305 140.42C87.1677 140.058 87.0933 139.677 87.0061 139.312Z" fill="#EF9A45" style="fill:#EF9A45;fill:color(display-p3 0.9373 0.6039 0.2706);fill-opacity:1;"/>
<path id="Vector 125" d="M104.669 39.1004C104.865 39.3049 105.148 39.4259 105.444 39.4464C105.74 39.4664 106.024 39.3843 106.246 39.2085C106.467 39.0327 106.612 38.7749 106.661 38.4821C106.708 38.1899 106.655 37.8867 106.501 37.6489C106.501 37.6489 106.501 37.6489 106.501 37.6489C106.276 37.3038 106.052 36.9587 105.828 36.6136C101.789 30.4019 97.7502 24.1901 93.7116 17.9784C93.4872 17.6333 93.2628 17.2882 93.0385 16.9431C92.5345 16.1657 91.7583 15.6523 90.8409 15.5471C89.9259 15.4401 88.9448 15.7501 88.1532 16.3774C87.3615 17.0048 86.8356 17.8891 86.7306 18.8043C86.6234 19.7214 86.9459 20.5944 87.5875 21.2627C87.5875 21.2627 87.5875 21.2627 87.5875 21.2627C87.8722 21.56 88.1569 21.8573 88.4416 22.1546C93.566 27.5059 98.6905 32.8572 103.815 38.2085C104.1 38.5058 104.384 38.8031 104.669 39.1004Z" fill="#E76651" style="fill:#E76651;fill:color(display-p3 0.9059 0.4000 0.3176);fill-opacity:1;"/>
<path id="Vector 126" d="M133.188 34.864C133.054 35.1039 133.023 35.4058 133.083 35.6907C133.145 35.9764 133.294 36.2218 133.514 36.3853C133.734 36.5488 134.012 36.6205 134.303 36.5969C134.594 36.5726 134.873 36.4549 135.064 36.2575C135.064 36.2575 135.064 36.2575 135.064 36.2575C135.273 36.0415 135.481 35.8255 135.69 35.6095C139.441 31.7214 143.191 27.8332 146.942 23.9451C147.151 23.7291 147.359 23.5131 147.568 23.2971C148.215 22.6288 148.533 21.7634 148.397 20.8498C148.264 19.9386 147.687 19.0539 146.85 18.4319C146.012 17.8098 144.999 17.5133 144.088 17.6492C143.174 17.7826 142.437 18.3374 141.984 19.1499C141.984 19.1499 141.984 19.1499 141.984 19.1499C141.838 19.4118 141.691 19.6737 141.545 19.9356C138.906 24.6498 136.267 29.364 133.628 34.0783C133.481 34.3402 133.335 34.6021 133.188 34.864Z" fill="#EFA157" style="fill:#EFA157;fill:color(display-p3 0.9373 0.6314 0.3412);fill-opacity:1;"/>
<path id="Vector 127" d="M117.548 34.2202C117.583 34.4936 117.737 34.7557 117.956 34.9489C118.176 35.142 118.442 35.2503 118.718 35.2501C118.993 35.2498 119.259 35.1409 119.479 34.9473C119.697 34.7537 119.851 34.4913 119.885 34.2178C119.885 34.2178 119.885 34.2178 119.885 34.2178C119.923 33.9112 119.961 33.6045 120 33.2978C120.687 27.7779 121.374 22.2579 122.061 16.7379C122.099 16.4313 122.137 16.1246 122.175 15.8179C122.292 14.8955 122.027 14.0113 121.372 13.3598C120.722 12.7083 119.734 12.3429 118.694 12.344C117.655 12.3451 116.668 12.7124 116.018 13.3653C115.365 14.0181 115.102 14.9029 115.22 15.825C115.22 15.825 115.22 15.825 115.22 15.825C115.259 16.1316 115.298 16.4382 115.337 16.7448C116.035 22.2633 116.733 27.7819 117.432 33.3005C117.47 33.607 117.509 33.9136 117.548 34.2202Z" fill="#5C9DEC" style="fill:#5C9DEC;fill:color(display-p3 0.3608 0.6157 0.9255);fill-opacity:1;"/>
</g>
</g>
</svg>
