<svg width="287" height="167" viewBox="0 0 287 167" fill="none" xmlns="http://www.w3.org/2000/svg">

<g id="FX / BlueParrot / FeatherBurst">
<g id="FX / Parrot / FeatherBurst">
<g id="Group 33">
<path id="Vector 47" d="M243.462 109.558C229.236 130.171 230.518 149.236 232.938 156.191C280.841 143.671 285.74 80.3444 276.849 77.9855C269.736 76.0984 254.651 93.4089 247.998 102.3V109.195L243.462 109.558Z" fill="#5FA1EC" style="fill:#5FA1EC;fill:color(display-p3 0.3725 0.6314 0.9255);fill-opacity:1;"/>
<path id="Vector 48" d="M266.144 100.849C256.95 118.207 236.385 154.704 227.676 161.816" stroke="#3661A2" style="stroke:#3661A2;stroke:color(display-p3 0.2118 0.3804 0.6353);stroke-opacity:1;" stroke-width="2"/>
</g>
<path id="Vector 43" d="M228.039 24.4571L233.301 24.6385L233.301 18.2877C237.414 10.7877 252.898 -2.21645 259.793 0.323932C270.95 4.43443 259.43 34.6184 252.172 49.4975L246.184 49.1346L248.906 52.9451C240.341 69.0581 224.652 72.8444 217.877 72.7234C207.135 61.8363 220.176 36.0095 228.039 24.4571Z" fill="#3661A2" style="fill:#3661A2;fill:color(display-p3 0.2118 0.3804 0.6353);fill-opacity:1;"/>
<g id="Group 31">
<path id="Vector 45" d="M213.734 98.3082C214.46 140.55 181.738 159.941 165.286 164.357C159.916 144.47 170.428 126.191 176.355 119.538L180.166 121.353L179.258 116.272C189.274 100.304 206.416 97.6428 213.734 98.3082Z" fill="#A6D0FF" style="fill:#A6D0FF;fill:color(display-p3 0.6521 0.8150 1.0000);fill-opacity:1;"/>
<path id="Vector 46" d="M176.536 146.393C184.218 133.389 202.775 105.131 215.549 96.1307" stroke="#5FA1EC" style="stroke:#5FA1EC;stroke:color(display-p3 0.3725 0.6314 0.9255);stroke-opacity:1;" stroke-width="2"/>
</g>
<g id="Group 32">
<path id="Vector 44" d="M248.361 22.2796L213.885 79.0742" stroke="#1D4784" style="stroke:#1D4784;stroke:color(display-p3 0.1144 0.2778 0.5179);stroke-opacity:1;" stroke-width="2" stroke-linecap="round"/>
</g>
<g id="Group 30">
<path id="Vector 39" d="M111.91 26.2715C100.78 49.437 92.0224 101.211 146.023 122.986C149.894 102.723 148.49 55.0136 111.91 26.2715Z" fill="#F5EDD9" style="fill:#F5EDD9;fill:color(display-p3 0.9608 0.9294 0.8510);fill-opacity:1;"/>
<path id="Vector 42" d="M117.353 54.5781C123.462 73.0863 138.401 113.586 149.289 127.522" stroke="#DBD8CC" style="stroke:#DBD8CC;stroke:color(display-p3 0.8588 0.8471 0.8000);stroke-opacity:1;" stroke-width="2"/>
</g>
<g id="Group 29">
<path id="Vector 40" d="M25.3563 127.885L25.9004 119.72C18.9143 111.22 8.47344 107.589 4.12628 106.836C-1.09955 151.837 26.5054 162.119 40.9611 161.635C45.316 144.216 34.1869 128.006 28.078 122.078L25.3563 127.885Z" fill="#3D6EB6" style="fill:#3D6EB6;fill:color(display-p3 0.2392 0.4314 0.7137);fill-opacity:1;"/>
<path id="Vector 41" d="M16.2837 130.244C19.6103 136.837 29.7838 153.216 43.8645 165.99" stroke="#1D4784" style="stroke:#1D4784;stroke:color(display-p3 0.1144 0.2778 0.5179);stroke-opacity:1;" stroke-width="2" stroke-linecap="round"/>
</g>
<g id="Group 28">
<path id="Vector 38" d="M25.2427 13.7991C67.7158 24.1497 74.071 59.5539 71.9395 75.9621C55.6543 74.6002 44.7522 63.7852 41.3367 58.548L44.2015 54.5814L38.8026 55.0772L33.2934 47.1441L35.9378 45.6016L32.6324 45.5465C23.3771 33.9553 23.8496 19.5519 25.2427 13.7991Z" fill="#5FA1EC" style="fill:#5FA1EC;fill:color(display-p3 0.3725 0.6314 0.9255);fill-opacity:1;"/>
<path id="Vector 37" d="M39.8168 32.2398L73.2778 78.1929" stroke="#4575B8" style="stroke:#4575B8;stroke:color(display-p3 0.2706 0.4588 0.7216);stroke-opacity:1;" stroke-width="2" stroke-linecap="round"/>
</g>
<circle id="Ellipse 27" cx="184.903" cy="66.0597" r="5.67505" fill="#5FA1EC" style="fill:#5FA1EC;fill:color(display-p3 0.3725 0.6314 0.9255);fill-opacity:1;"/>
<circle id="Ellipse 28" cx="60.1609" cy="108.419" r="5.67505" fill="#EB6041" style="fill:#EB6041;fill:color(display-p3 0.9216 0.3765 0.2549);fill-opacity:1;"/>
<circle id="Ellipse 29" cx="40.1609" cy="86.3024" r="5.67505" fill="#3E71BD" style="fill:#3E71BD;fill:color(display-p3 0.2431 0.4431 0.7412);fill-opacity:1;"/>
<circle id="Ellipse 30" cx="5.67505" cy="34.5362" r="5.67505" fill="#F5D058" style="fill:#F5D058;fill:color(display-p3 0.9608 0.8157 0.3451);fill-opacity:1;"/>
<circle id="Ellipse 31" cx="280.476" cy="150.516" r="5.67505" fill="#5C9EEC" style="fill:#5C9EEC;fill:color(display-p3 0.3608 0.6196 0.9255);fill-opacity:1;"/>
</g>
</g>
</svg>
