<svg xmlns="http://www.w3.org/2000/svg" width="178" height="311" viewBox="0 0 178 311" fill="none">
<g id="GAME THEME / GANESHA TEMPLE">
<g id="Target / TempleBell">
<rect x="-304.723" y="-16.9974" width="1704.38" height="346.983" rx="4.5" stroke="#8A38F5" style="stroke:#8A38F5;stroke:color(display-p3 0.5412 0.2196 0.9608);stroke-opacity:1;" stroke-dasharray="10 5" />
<g id="Property 1=TempleBell, Property 2=SwingLeft">
<g id="Group 166">
<g id="Chain" filter="url(#filter0_i_0_1)">
<rect id="Rectangle 136" x="137.36" y="2.50256" width="12.1529" height="26.6069" rx="6.07645" transform="rotate(10.4237 137.36 2.50256)" stroke="#EBA742" style="stroke:#EBA742;stroke:color(display-p3 0.9216 0.6549 0.2588);stroke-opacity:1;" stroke-width="7" />
<rect id="Rectangle 137" x="132.546" y="28.6703" width="12.1529" height="26.6069" rx="6.07645" transform="rotate(10.4237 132.546 28.6703)" stroke="#EBA742" style="stroke:#EBA742;stroke:color(display-p3 0.9216 0.6549 0.2588);stroke-opacity:1;" stroke-width="7" />
<rect id="Rectangle 138" x="127.733" y="54.8381" width="12.1529" height="26.6069" rx="6.07645" transform="rotate(10.4237 127.733 54.8381)" stroke="#EBA742" style="stroke:#EBA742;stroke:color(display-p3 0.9216 0.6549 0.2588);stroke-opacity:1;" stroke-width="7" />
<rect id="Rectangle 139" x="122.919" y="81.0059" width="12.1529" height="26.6069" rx="6.07645" transform="rotate(10.4237 122.919 81.0059)" stroke="#EBA742" style="stroke:#EBA742;stroke:color(display-p3 0.9216 0.6549 0.2588);stroke-opacity:1;" stroke-width="7" />
<rect id="Rectangle 140" x="118.105" y="107.174" width="12.1529" height="26.6069" rx="6.07645" transform="rotate(10.4237 118.105 107.174)" stroke="#EBA742" style="stroke:#EBA742;stroke:color(display-p3 0.9216 0.6549 0.2588);stroke-opacity:1;" stroke-width="7" />
</g>
<g id="Ring holder" filter="url(#filter1_i_0_1)">
<rect x="106.313" y="131.386" width="29.7198" height="26.6069" rx="13.3034" transform="rotate(20.4388 106.313 131.386)" stroke="#EBA742" style="stroke:#EBA742;stroke:color(display-p3 0.9216 0.6549 0.2588);stroke-opacity:1;" stroke-width="7" />
</g>
<g id="Bell">
<path id="Vector 366" fill-rule="evenodd" clip-rule="evenodd" d="M70.3939 162.882C64.0802 169.785 59.1211 178.424 54.4194 186.614C50.6842 193.121 47.1116 199.345 43.1511 204.19C58.6536 205.24 74.9203 208.68 91.1172 214.716C107.314 220.752 121.865 228.797 134.273 238.149C134.45 231.893 135.822 224.849 137.256 217.485C139.061 208.215 140.965 198.437 140.708 189.086C140.236 171.859 123.695 160.567 113.027 155.923C101.923 152.453 82.0259 150.166 70.3939 162.882Z" fill="#F2B84B" style="fill:#F2B84B;fill:color(display-p3 0.9490 0.7216 0.2941);fill-opacity:1;" />
<path id="Ellipse 170" d="M43.1511 204.19C58.6536 205.24 74.9203 208.68 91.1172 214.716C107.314 220.752 121.865 228.797 134.273 238.149C134.147 242.627 134.633 246.702 136.148 250.2C122.728 239.194 106.459 229.751 88.0683 222.897C69.6775 216.044 51.1968 212.537 33.8469 212.076C37.2816 210.422 40.3157 207.659 43.1511 204.19Z" fill="#E09938" style="fill:#E09938;fill:color(display-p3 0.8784 0.6000 0.2196);fill-opacity:1;" />
<path id="Ellipse 170_2" fill-rule="evenodd" clip-rule="evenodd" d="M88.0683 222.897C106.459 229.751 122.728 239.194 136.148 250.2C136.665 251.397 137.304 252.526 138.079 253.58C146.232 264.677 142.451 275.859 139.541 280.063C137.587 274.047 122.992 258.384 80.2537 243.867C38.4379 226.873 17.1526 229.165 11.7369 232.435C12.2881 227.352 16.7473 216.423 30.1745 213.368C31.4509 213.078 32.6723 212.642 33.8469 212.076C51.1968 212.537 69.6775 216.044 88.0683 222.897Z" fill="#F3B94A" style="fill:#F3B94A;fill:color(display-p3 0.9529 0.7255 0.2902);fill-opacity:1;" />
<ellipse id="Ellipse 171" cx="75.0191" cy="257.913" rx="68.6907" ry="17.2258" transform="rotate(20.4388 75.0191 257.913)" fill="#B17129" style="fill:#B17129;fill:color(display-p3 0.6941 0.4431 0.1608);fill-opacity:1;" />
<path id="Ellipse 174" fill-rule="evenodd" clip-rule="evenodd" d="M139.184 282.359C139.26 282.21 139.327 282.057 139.385 281.9C139.619 281.274 139.707 280.604 139.657 279.894C139.618 279.952 139.58 280.008 139.541 280.063C139.284 279.272 138.809 278.314 138.079 277.213C139.16 279.122 139.557 280.857 139.184 282.359ZM114.818 286.115C102.274 284.548 86.1063 280.428 69.0038 274.054C33.4552 260.807 7.33064 242.84 10.6528 233.926C13.975 225.011 45.486 228.524 81.0345 241.772C97.6035 247.946 112.125 255.146 122.572 261.977C123.88 268.838 123.581 277.023 114.818 286.115Z" fill="#B17129" style="fill:#B17129;fill:color(display-p3 0.6941 0.4431 0.1608);fill-opacity:1;" />
<ellipse id="Ellipse 172" cx="75.6902" cy="256.112" rx="57.1048" ry="14.3043" transform="rotate(20.4388 75.6902 256.112)" fill="#3F2210" style="fill:#3F2210;fill:color(display-p3 0.2471 0.1333 0.0627);fill-opacity:1;" />
<path id="Ellipse 173" d="M65.9567 251.121C65.7216 253.363 64.4357 255.598 62.4416 256.649C59.0053 258.461 56.1966 261.494 54.7333 265.42C51.5729 273.901 55.8857 283.338 64.3663 286.498C72.8469 289.659 82.2839 285.346 85.4443 276.865C86.9076 272.939 86.7688 268.807 85.3562 265.189C84.5364 263.089 85.0267 260.558 86.3163 258.709C86.8464 257.948 87.2903 257.11 87.629 256.201C89.7925 250.395 86.8401 243.935 81.0345 241.772C75.229 239.608 68.7688 242.56 66.6053 248.366C66.2666 249.275 66.0533 250.199 65.9567 251.121Z" fill="url(#paint0_radial_0_1)" />
<g id="Vector 368" opacity="0.4" style="mix-blend-mode:color-burn">
<path fill-rule="evenodd" clip-rule="evenodd" d="M113.955 286.987C127.762 288.774 137.291 287.521 139.036 282.837C139.095 282.68 139.144 282.521 139.184 282.359C137.026 286.609 127.89 287.748 114.818 286.115C114.539 286.405 114.252 286.695 113.955 286.987ZM122.572 261.977C122.19 259.972 121.671 258.08 121.185 256.311C120.84 255.055 120.512 253.861 120.263 252.733C119.832 250.784 119.02 248.736 118.121 246.468C114.714 237.881 110.054 226.13 120.082 204.567C128.333 186.824 123.237 168.809 117.67 158.195C127.913 163.761 140.3 174.211 140.708 189.086C140.965 198.437 139.061 208.215 137.256 217.485C135.822 224.849 134.45 231.893 134.273 238.149C134.147 242.627 134.633 246.702 136.148 250.2C136.665 251.397 137.304 252.526 138.079 253.58C146.125 264.531 142.549 275.565 139.657 279.894C139.326 275.202 132.966 268.772 122.572 261.977Z" fill="#E29938" style="fill:#E29938;fill:color(display-p3 0.8863 0.6000 0.2196);fill-opacity:1;" />
</g>
</g>
<path id="Vector 369" d="M86.8251 161.718C86.6518 161.433 86.4785 161.148 86.3052 160.864C85.5218 161.119 84.7436 161.428 83.9896 161.757C76.82 164.971 70.6185 170.323 66.329 177.082C64.8436 179.437 63.6254 181.983 62.7526 184.654C61.5512 188.421 60.4047 192.202 58.8419 195.953C58.5355 196.678 58.2115 197.398 57.855 198.115C58.1041 198.336 58.3533 198.558 58.6024 198.779C59.2946 198.316 59.9596 197.807 60.5992 197.262C63.9067 194.429 66.4838 190.85 68.4979 187.098C69.6743 184.952 70.9216 182.867 72.2247 180.799C75.9889 174.886 80.2544 169.089 85.2018 163.45C85.7243 162.865 86.2686 162.279 86.8251 161.718Z" fill="#F8DFAC" style="fill:#F8DFAC;fill:color(display-p3 0.9725 0.8745 0.6745);fill-opacity:1;" />
</g>
</g>
</g>
</g>
<defs>
<filter id="filter0_i_0_1" x="110.788" y="0" width="41.0268" height="138.043" filterUnits="userSpaceOnUse" color-interpolation-filters="sRGB">
<feFlood flood-opacity="0" result="BackgroundImageFix" />
<feBlend mode="normal" in="SourceGraphic" in2="BackgroundImageFix" result="shape" />
<feColorMatrix in="SourceAlpha" type="matrix" values="0 0 0 0 0 0 0 0 0 0 0 0 0 0 0 0 0 0 127 0" result="hardAlpha" />
<feOffset />
<feGaussianBlur stdDeviation="2" />
<feComposite in2="hardAlpha" operator="arithmetic" k2="-1" k3="1" />
<feColorMatrix type="matrix" values="0 0 0 0 0 0 0 0 0 0 0 0 0 0 0 0 0 0 0.25 0" />
<feBlend mode="normal" in2="shape" result="effect1_innerShadow_0_1" />
</filter>
<filter id="filter1_i_0_1" x="97.3257" y="131.689" width="36.5329" height="34.703" filterUnits="userSpaceOnUse" color-interpolation-filters="sRGB">
<feFlood flood-opacity="0" result="BackgroundImageFix" />
<feBlend mode="normal" in="SourceGraphic" in2="BackgroundImageFix" result="shape" />
<feColorMatrix in="SourceAlpha" type="matrix" values="0 0 0 0 0 0 0 0 0 0 0 0 0 0 0 0 0 0 127 0" result="hardAlpha" />
<feOffset dy="-2" />
<feComposite in2="hardAlpha" operator="arithmetic" k2="-1" k3="1" />
<feColorMatrix type="matrix" values="0 0 0 0 0.870588 0 0 0 0 0.494118 0 0 0 0 0.133333 0 0 0 1 0" />
<feBlend mode="normal" in2="shape" result="effect1_innerShadow_0_1" />
</filter>
<radialGradient id="paint0_radial_0_1" cx="0" cy="0" r="1" gradientUnits="userSpaceOnUse" gradientTransform="translate(69.504 272.712) rotate(110.439) scale(23.8263 16.36)">
<stop stop-color="#FFCE91" style="stop-color:#FFCE91;stop-color:color(display-p3 1.0000 0.8062 0.5705);stop-opacity:1;" />
<stop offset="1" stop-color="#D07608" style="stop-color:#D07608;stop-color:color(display-p3 0.8167 0.4618 0.0301);stop-opacity:1;" />
</radialGradient>
</defs>
</svg>