<svg width="1920" height="1080" viewBox="0 0 1920 1080" fill="none" xmlns="http://www.w3.org/2000/svg">
<g clip-path="url(#clip0_69_2572)">
<rect width="1920" height="1080" fill="#82D4FF" style="fill:#82D4FF;fill:color(display-p3 0.5114 0.8330 1.0000);fill-opacity:1;"/>
<rect width="1920" height="1078.45" fill="#82D4FF" style="fill:#82D4FF;fill:color(display-p3 0.5098 0.8314 1.0000);fill-opacity:1;"/>
<rect y="774.246" width="1920" height="27.8229" fill="#A1DFFF" style="fill:#A1DFFF;fill:color(display-p3 0.6326 0.8736 1.0000);fill-opacity:1;"/>
<rect y="802.069" width="1920" height="276.378" fill="#82D4FF" style="fill:#82D4FF;fill:color(display-p3 0.5098 0.8314 1.0000);fill-opacity:1;"/>
<path opacity="0.3" d="M1369.42 830.544H1247.69" stroke="#FAF3E6" style="stroke:#FAF3E6;stroke:color(display-p3 0.9804 0.9529 0.9020);stroke-opacity:1;" stroke-width="7" stroke-linecap="round"/>
<path opacity="0.3" d="M1206.78 866.007H1124.42" stroke="#FAF3E6" style="stroke:#FAF3E6;stroke:color(display-p3 0.9804 0.9529 0.9020);stroke-opacity:1;" stroke-width="7" stroke-linecap="round"/>
<path opacity="0.3" d="M773.75 866.007H691.392" stroke="#FAF3E6" style="stroke:#FAF3E6;stroke:color(display-p3 0.9804 0.9529 0.9020);stroke-opacity:1;" stroke-width="7" stroke-linecap="round"/>
<path opacity="0.3" d="M568.095 836.074H485.736" stroke="#FAF3E6" style="stroke:#FAF3E6;stroke:color(display-p3 0.9804 0.9529 0.9020);stroke-opacity:1;" stroke-width="7" stroke-linecap="round"/>
<path opacity="0.3" d="M641.332 886.441H558.973" stroke="#FAF3E6" style="stroke:#FAF3E6;stroke:color(display-p3 0.9804 0.9529 0.9020);stroke-opacity:1;" stroke-width="7" stroke-linecap="round"/>
<path d="M670.544 553.309C598.615 546.565 499.714 591.528 310.902 629.185C164.092 658.465 39.3647 691.178 -8.79629 705.032V774.192H1986.61V712.367L1759.58 635.367C1693.27 609.139 1548.74 555.895 1501.09 552.747C1441.53 548.813 1129.09 630.309 1049.29 630.309C969.496 630.309 742.472 560.054 670.544 553.309Z" fill="#83B0DB" style="fill:#83B0DB;fill:color(display-p3 0.5137 0.6902 0.8588);fill-opacity:1;"/>
<path d="M973.843 632.284C782.011 681.077 653.021 685.212 376.849 634.765C159.007 594.972 28.3028 581.926 -11.7761 580.247V774.53H1984.27V628.149C1950.64 611.884 1854.29 583.986 1737.86 602.511C1592.34 625.668 1521.23 660.402 1367.43 638.9C1213.63 617.398 1165.68 583.49 973.843 632.284Z" fill="#6E9BC8" style="fill:#6E9BC8;fill:color(display-p3 0.4314 0.6078 0.7843);fill-opacity:1;"/>
<rect x="485.736" y="630.401" width="54.7571" height="82.1895" rx="27.3786" fill="#407B72" style="fill:#407B72;fill:color(display-p3 0.2510 0.4824 0.4471);fill-opacity:1;"/>
<rect x="507.94" y="680.45" width="10.3487" height="82.1895" rx="5.17435" fill="#214B44" style="fill:#214B44;fill:color(display-p3 0.1284 0.2937 0.2685);fill-opacity:1;"/>
<rect x="337.076" y="623.592" width="54.7571" height="82.1895" rx="27.3786" fill="#407B72" style="fill:#407B72;fill:color(display-p3 0.2510 0.4824 0.4471);fill-opacity:1;"/>
<rect x="359.28" y="673.641" width="10.3487" height="82.1895" rx="5.17435" fill="#214B44" style="fill:#214B44;fill:color(display-p3 0.1284 0.2937 0.2685);fill-opacity:1;"/>
<rect x="571.099" y="682.162" width="30.5046" height="45.7869" rx="15.2523" fill="#407B72" style="fill:#407B72;fill:color(display-p3 0.2510 0.4824 0.4471);fill-opacity:1;"/>
<rect x="583.469" y="710.044" width="5.76514" height="45.7869" rx="2.88257" fill="#214B44" style="fill:#214B44;fill:color(display-p3 0.1284 0.2937 0.2685);fill-opacity:1;"/>
<rect x="419.398" y="682.162" width="32.6152" height="48.9548" rx="16.3076" fill="#407B72" style="fill:#407B72;fill:color(display-p3 0.2510 0.4824 0.4471);fill-opacity:1;"/>
<rect x="432.624" y="711.973" width="6.16403" height="48.9548" rx="3.08201" fill="#214B44" style="fill:#214B44;fill:color(display-p3 0.1284 0.2937 0.2685);fill-opacity:1;"/>
<path d="M677.898 780.638C668.159 759.225 646.805 745.478 623.281 745.478H61.1437V797.618H685.62L677.898 780.638Z" fill="#89AB54" style="fill:#89AB54;fill:color(display-p3 0.5373 0.6706 0.3294);fill-opacity:1;"/>
<rect x="153.11" y="582.498" width="54.7571" height="82.1895" rx="27.3786" fill="#407B72" style="fill:#407B72;fill:color(display-p3 0.2510 0.4824 0.4471);fill-opacity:1;"/>
<rect x="175.314" y="632.546" width="10.3487" height="82.1895" rx="5.17435" fill="#214B44" style="fill:#214B44;fill:color(display-p3 0.1284 0.2937 0.2685);fill-opacity:1;"/>
<rect x="62.5332" y="623.592" width="76.3118" height="114.543" rx="38.1559" fill="#407B72" style="fill:#407B72;fill:color(display-p3 0.2510 0.4824 0.4471);fill-opacity:1;"/>
<rect x="95.5146" y="705.994" width="10.3487" height="82.1895" rx="5.17435" fill="#214B44" style="fill:#214B44;fill:color(display-p3 0.1284 0.2937 0.2685);fill-opacity:1;"/>
<path opacity="0.5" d="M-206 694.35H62.59C85.3455 694.35 105.231 709.716 110.972 731.735L135.758 826.79H-206V694.35Z" fill="#D9D9D9" style="fill:#D9D9D9;fill:color(display-p3 0.8510 0.8510 0.8510);fill-opacity:1;"/>
<path d="M-13.4297 694.35H255.16C277.916 694.35 297.801 709.716 303.543 731.735L328.328 826.79H-13.4297V694.35Z" fill="#253D53" style="fill:#253D53;fill:color(display-p3 0.1451 0.2392 0.3255);fill-opacity:1;"/>
<path opacity="0.5" d="M-126.841 694.35H141.749C164.505 694.35 184.39 709.716 190.131 731.735L214.917 826.79H-126.841V694.35Z" fill="#1C2F45" style="fill:#1C2F45;fill:color(display-p3 0.1098 0.1843 0.2706);fill-opacity:1;"/>
<path d="M-13.4297 826.79H374.773C397.972 826.79 418.124 842.747 423.442 865.329L433.366 907.472H-13.4297V826.79Z" fill="#1C364B" style="fill:#1C364B;fill:color(display-p3 0.1098 0.2118 0.2941);fill-opacity:1;"/>
<path d="M-13.4297 694.35H67.5957C90.8309 694.35 111.004 710.357 116.287 732.983L157.268 908.528H-13.4297V694.35Z" fill="#7F5F49" style="fill:#7F5F49;fill:color(display-p3 0.4980 0.3725 0.2863);fill-opacity:1;"/>
<path d="M-51.3105 694.35H29.7149C52.9501 694.35 73.1234 710.357 78.4057 732.983L119.387 908.528H-51.3105V694.35Z" fill="#634E3F" style="fill:#634E3F;fill:color(display-p3 0.3882 0.3059 0.2471);fill-opacity:1;"/>
<circle cx="180.488" cy="907.472" r="63.342" fill="#89AB54" style="fill:#89AB54;fill:color(display-p3 0.5373 0.6706 0.3294);fill-opacity:1;"/>
<circle cx="-12.4533" cy="886.441" r="84.3722" fill="#30644F" style="fill:#30644F;fill:color(display-p3 0.1882 0.3922 0.3098);fill-opacity:1;"/>
<circle cx="86.4414" cy="918.41" r="52.4034" fill="#89AB54" style="fill:#89AB54;fill:color(display-p3 0.5373 0.6706 0.3294);fill-opacity:1;"/>
<path d="M1619.53 604.107L1595.59 595.156L1595.49 611.567L1619.53 604.107Z" fill="#E9805A" style="fill:#E9805A;fill:color(display-p3 0.9137 0.5020 0.3529);fill-opacity:1;"/>
<rect x="1570.38" y="621.029" width="51.4806" height="28.6797" rx="14.3398" fill="#F0CFA2" style="fill:#F0CFA2;fill:color(display-p3 0.9412 0.8118 0.6353);fill-opacity:1;"/>
<rect x="1644.45" y="675.694" width="51.4806" height="28.6797" rx="14.3398" fill="#F1B37D" style="fill:#F1B37D;fill:color(display-p3 0.9451 0.7020 0.4902);fill-opacity:1;"/>
<rect x="1566.97" y="621.029" width="28.6797" height="28.6797" rx="14.3398" fill="#F2D9B4" style="fill:#F2D9B4;fill:color(display-p3 0.9490 0.8510 0.7059);fill-opacity:1;"/>
<path d="M1513.72 747.289V697.244L1597.04 697.244V747.289H1513.72Z" fill="#F2E9D7" style="fill:#F2E9D7;fill:color(display-p3 0.9490 0.9137 0.8431);fill-opacity:1;"/>
<rect x="1566.97" y="633.586" width="27.4443" height="74.4929" fill="#F8EDD6" style="fill:#F8EDD6;fill:color(display-p3 0.9725 0.9294 0.8392);fill-opacity:1;"/>
<rect width="27.4443" height="74.4929" transform="matrix(-1 0 0 1 1621.86 633.586)" fill="#F1DCBB" style="fill:#F1DCBB;fill:color(display-p3 0.9451 0.8627 0.7333);fill-opacity:1;"/>
<path d="M1611.39 716.703L1595.96 697.835L1595.78 747.726H1611.39V716.703Z" fill="#D7C9B1" style="fill:#D7C9B1;fill:color(display-p3 0.8431 0.7882 0.6941);fill-opacity:1;"/>
<path d="M1432.42 747.671V716.638L1432.81 716.1H1459.42L1459.89 716.638V747.671H1432.42Z" fill="#D6CBB4" style="fill:#D6CBB4;fill:color(display-p3 0.8392 0.7961 0.7059);fill-opacity:1;"/>
<path d="M1409.28 699.418H1445.33L1433.31 716.279L1396 716.638L1409.28 699.418Z" fill="#EEA873" style="fill:#EEA873;fill:color(display-p3 0.9333 0.6588 0.4510);fill-opacity:1;"/>
<path d="M1397.62 747.671V716.638L1434.39 716.279V747.671H1397.62Z" fill="#F5E6C9" style="fill:#F5E6C9;fill:color(display-p3 0.9608 0.9020 0.7882);fill-opacity:1;"/>
<path d="M1411.07 747.671V732.094C1411.07 729.416 1413.21 727.227 1415.88 727.163C1418.65 727.097 1420.93 729.324 1420.93 732.094V747.671H1411.07Z" fill="#5B799A" style="fill:#5B799A;fill:color(display-p3 0.3569 0.4745 0.6039);fill-opacity:1;"/>
<path fill-rule="evenodd" clip-rule="evenodd" d="M1432.81 716.1L1444.97 699.418L1459.42 716.1H1432.81Z" fill="#CEAE8E" style="fill:#CEAE8E;fill:color(display-p3 0.8078 0.6824 0.5569);fill-opacity:1;"/>
<rect x="1329.31" y="689.013" width="26.524" height="39.8121" rx="13.262" fill="#407B72" style="fill:#407B72;fill:color(display-p3 0.2510 0.4824 0.4471);fill-opacity:1;"/>
<rect x="1340.07" y="713.257" width="5.01285" height="39.8121" rx="2.50642" fill="#214B44" style="fill:#214B44;fill:color(display-p3 0.1284 0.2937 0.2685);fill-opacity:1;"/>
<rect x="1291.31" y="708.028" width="26.524" height="39.8121" rx="13.262" fill="#407B72" style="fill:#407B72;fill:color(display-p3 0.2510 0.4824 0.4471);fill-opacity:1;"/>
<rect x="1302.06" y="732.271" width="5.01285" height="39.8121" rx="2.50642" fill="#214B44" style="fill:#214B44;fill:color(display-p3 0.1284 0.2937 0.2685);fill-opacity:1;"/>
<rect x="1450.44" y="658.263" width="39.2571" height="58.9242" rx="19.6286" fill="#407B72" style="fill:#407B72;fill:color(display-p3 0.2510 0.4824 0.4471);fill-opacity:1;"/>
<rect x="1466.36" y="694.145" width="7.4193" height="58.9242" rx="3.70965" fill="#214B44" style="fill:#214B44;fill:color(display-p3 0.1284 0.2937 0.2685);fill-opacity:1;"/>
<path d="M1471.93 690.795L1493.08 667.578L1514.49 695.438L1515.01 747.805L1471.93 748.579V690.795Z" fill="#DCD1BB" style="fill:#DCD1BB;fill:color(display-p3 0.8627 0.8196 0.7333);fill-opacity:1;"/>
<rect x="1372.55" y="615.469" width="56.9773" height="85.522" rx="28.4887" fill="#407B72" style="fill:#407B72;fill:color(display-p3 0.2510 0.4824 0.4471);fill-opacity:1;"/>
<rect x="1395.65" y="667.547" width="10.7683" height="85.522" rx="5.38415" fill="#214B44" style="fill:#214B44;fill:color(display-p3 0.1284 0.2937 0.2685);fill-opacity:1;"/>
<path d="M1492.05 667.578L1574.34 666.288L1596.01 697.502L1514.24 698.018L1492.05 667.578Z" fill="#E97D55" style="fill:#E97D55;fill:color(display-p3 0.9137 0.4902 0.3333);fill-opacity:1;"/>
<path d="M1695.93 691.848L1695.75 748.089L1655.83 748.089V691.819L1656.02 691.848H1695.93Z" fill="#F3D8B1" style="fill:#F3D8B1;fill:color(display-p3 0.9529 0.8471 0.6941);fill-opacity:1;"/>
<path d="M1668.53 748.633V728.252C1668.53 724.579 1671.51 721.601 1675.18 721.601C1678.83 721.601 1681.8 724.544 1681.83 728.194L1682.01 748.355L1668.53 748.633Z" fill="#5B799A" style="fill:#5B799A;fill:color(display-p3 0.3569 0.4745 0.6039);fill-opacity:1;"/>
<path d="M1542.94 748.633V733.929C1542.94 727.12 1548.46 721.601 1555.26 721.601C1562 721.601 1567.48 727.001 1567.59 733.731L1567.83 748.355L1542.94 748.633Z" fill="#5B799A" style="fill:#5B799A;fill:color(display-p3 0.3569 0.4745 0.6039);fill-opacity:1;"/>
<path d="M1595.67 592.15V627.487" stroke="#748FA5" style="stroke:#748FA5;stroke:color(display-p3 0.4549 0.5608 0.6471);stroke-opacity:1;" stroke-width="4"/>
<path d="M1641.86 698.016L1595.42 697.835L1610.84 716.703L1655.83 716.521L1641.86 698.016Z" fill="#E97D52" style="fill:#E97D52;fill:color(display-p3 0.9137 0.4902 0.3216);fill-opacity:1;"/>
<path fill-rule="evenodd" clip-rule="evenodd" d="M1610.12 715.796L1611.02 748.089H1644.55V712.01L1610.12 715.796Z" fill="#F3D8B1" style="fill:#F3D8B1;fill:color(display-p3 0.9529 0.8471 0.6941);fill-opacity:1;"/>
<path fill-rule="evenodd" clip-rule="evenodd" d="M1644.55 712.01L1644.77 711.986V690.034L1655.83 691.819V748.089H1644.55V712.01Z" fill="#D8CAB2" style="fill:#D8CAB2;fill:color(display-p3 0.8471 0.7922 0.6980);fill-opacity:1;"/>
<path d="M1220.47 780.638C1230.21 759.225 1251.56 745.478 1275.09 745.478H1837.23V797.618H1212.75L1220.47 780.638Z" fill="#89AB54" style="fill:#89AB54;fill:color(display-p3 0.5373 0.6706 0.3294);fill-opacity:1;"/>
<mask id="mask0_69_2572" style="mask-type:alpha" maskUnits="userSpaceOnUse" x="0" y="127" width="410" height="568">
<rect y="127.364" width="409.877" height="566.987" fill="#D9D9D9" style="fill:#D9D9D9;fill:color(display-p3 0.8510 0.8510 0.8510);fill-opacity:1;"/>
</mask>
<g mask="url(#mask0_69_2572)">
<path d="M303.586 479.216C247.166 476.29 137.287 477.3 89.4002 478.171L67.9817 519.441L159.402 511.605L199.105 495.41L392.395 503.246L407.022 487.052L328.139 483.917L362.618 443.692L358.438 438.468L303.586 479.216Z" fill="#785A45" style="fill:#785A45;fill:color(display-p3 0.4706 0.3529 0.2706);fill-opacity:1;"/>
<rect x="-64.6187" y="155.31" width="302.121" height="112.988" rx="56.4941" fill="#245155" style="fill:#245155;fill:color(display-p3 0.1412 0.3176 0.3333);fill-opacity:1;"/>
<path d="M34.229 469.375L135.045 336.353L157.449 344.755L34.229 630.401V469.375Z" fill="#654E3F" style="fill:#654E3F;fill:color(display-p3 0.3961 0.3059 0.2471);fill-opacity:1;"/>
<rect x="-13.4297" y="344.531" width="57.468" height="349.819" fill="#7F6048" style="fill:#7F6048;fill:color(display-p3 0.4980 0.3765 0.2824);fill-opacity:1;"/>
<rect x="15.3042" y="231.543" width="302.121" height="112.988" rx="56.4941" fill="#4D804F" style="fill:#4D804F;fill:color(display-p3 0.3020 0.5020 0.3098);fill-opacity:1;"/>
<rect x="-100.21" y="268.298" width="302.121" height="112.988" rx="56.4941" fill="#245155" style="fill:#245155;fill:color(display-p3 0.1412 0.3176 0.3333);fill-opacity:1;"/>
<rect x="-163.276" y="192.326" width="302.121" height="112.988" rx="56.4941" fill="#97B254" style="fill:#97B254;fill:color(display-p3 0.5922 0.6980 0.3294);fill-opacity:1;"/>
</g>
<circle cx="473.006" cy="124.786" r="63.1288" fill="white" style="fill:white;fill-opacity:1;"/>
<rect x="349.649" y="123.737" width="243.093" height="88.0667" rx="44.0333" fill="white" style="fill:white;fill-opacity:1;"/>
<rect width="54.7571" height="82.1895" rx="27.3786" transform="matrix(-1 0 0 1 1727.53 582.498)" fill="#407B72" style="fill:#407B72;fill:color(display-p3 0.2510 0.4824 0.4471);fill-opacity:1;"/>
<rect width="10.3487" height="82.1895" rx="5.17435" transform="matrix(-1 0 0 1 1705.32 632.546)" fill="#214B44" style="fill:#214B44;fill:color(display-p3 0.1284 0.2937 0.2685);fill-opacity:1;"/>
<rect width="76.3118" height="114.543" rx="38.1559" transform="matrix(-1 0 0 1 1818.11 623.592)" fill="#407B72" style="fill:#407B72;fill:color(display-p3 0.2510 0.4824 0.4471);fill-opacity:1;"/>
<rect width="10.3487" height="82.1895" rx="5.17435" transform="matrix(-1 0 0 1 1785.12 705.994)" fill="#214B44" style="fill:#214B44;fill:color(display-p3 0.1284 0.2937 0.2685);fill-opacity:1;"/>
<path opacity="0.5" d="M2086.64 694.35H1818.05C1795.29 694.35 1775.41 709.716 1769.67 731.735L1744.88 826.79H2086.64V694.35Z" fill="#D9D9D9" style="fill:#D9D9D9;fill:color(display-p3 0.8510 0.8510 0.8510);fill-opacity:1;"/>
<path d="M1894.07 694.35H1625.48C1602.72 694.35 1582.84 709.716 1577.1 731.735L1552.31 826.79H1894.07V694.35Z" fill="#253D53" style="fill:#253D53;fill:color(display-p3 0.1451 0.2392 0.3255);fill-opacity:1;"/>
<path opacity="0.5" d="M2007.48 694.35H1738.89C1716.13 694.35 1696.25 709.716 1690.51 731.735L1665.72 826.79H2007.48V694.35Z" fill="#1C2F45" style="fill:#1C2F45;fill:color(display-p3 0.1098 0.1843 0.2706);fill-opacity:1;"/>
<path d="M1894.07 826.79H1505.87C1482.67 826.79 1462.51 842.748 1457.2 865.329L1447.27 907.472H1894.07V826.79Z" fill="#1C364B" style="fill:#1C364B;fill:color(display-p3 0.1098 0.2118 0.2941);fill-opacity:1;"/>
<path d="M1894.07 694.35H1813.04C1789.81 694.35 1769.63 710.357 1764.35 732.983L1723.37 908.528H1894.07V694.35Z" fill="#7F5F49" style="fill:#7F5F49;fill:color(display-p3 0.4980 0.3725 0.2863);fill-opacity:1;"/>
<circle cx="63.342" cy="63.342" r="63.342" transform="matrix(-1 0 0 1 1763.49 844.13)" fill="#89AB54" style="fill:#89AB54;fill:color(display-p3 0.5373 0.6706 0.3294);fill-opacity:1;"/>
<path d="M1931.95 694.35H1850.92C1827.69 694.35 1807.52 710.357 1802.23 732.983L1761.25 908.528H1931.95V694.35Z" fill="#634E3F" style="fill:#634E3F;fill:color(display-p3 0.3882 0.3059 0.2471);fill-opacity:1;"/>
<circle cx="84.3722" cy="84.3722" r="84.3722" transform="matrix(-1 0 0 1 1977.46 802.069)" fill="#30644F" style="fill:#30644F;fill:color(display-p3 0.1882 0.3922 0.3098);fill-opacity:1;"/>
<circle cx="52.4034" cy="52.4034" r="52.4034" transform="matrix(-1 0 0 1 1846.6 866.007)" fill="#89AB54" style="fill:#89AB54;fill:color(display-p3 0.5373 0.6706 0.3294);fill-opacity:1;"/>
<mask id="mask1_69_2572" style="mask-type:alpha" maskUnits="userSpaceOnUse" x="1503" y="155" width="417" height="543">
<rect x="1503.62" y="155.31" width="416.383" height="541.934" fill="#D9D9D9" style="fill:#D9D9D9;fill:color(display-p3 0.8510 0.8510 0.8510);fill-opacity:1;"/>
</mask>
<g mask="url(#mask1_69_2572)">
<path d="M1607.05 535.445C1663.47 532.519 1773.35 533.529 1821.24 534.4L1842.66 575.67L1751.24 567.834L1711.53 551.639L1518.24 559.475L1503.62 543.281L1582.5 540.146L1548.02 499.921L1552.2 494.697L1607.05 535.445Z" fill="#785A45" style="fill:#785A45;fill:color(display-p3 0.4706 0.3529 0.2706);fill-opacity:1;"/>
<rect width="302.121" height="112.988" rx="56.4941" transform="matrix(-1 0 0 1 1945.26 155.31)" fill="#457749" style="fill:#457749;fill:color(display-p3 0.2706 0.4667 0.2863);fill-opacity:1;"/>
<path d="M1846.41 469.375L1775.59 316.353L1753.19 324.755L1846.41 630.401V469.375Z" fill="#654E3F" style="fill:#654E3F;fill:color(display-p3 0.3961 0.3059 0.2471);fill-opacity:1;"/>
<rect width="57.468" height="349.819" transform="matrix(-1 0 0 1 1894.07 344.531)" fill="#7F6048" style="fill:#7F6048;fill:color(display-p3 0.4980 0.3765 0.2824);fill-opacity:1;"/>
<rect width="302.121" height="112.988" rx="56.4941" transform="matrix(-1 0 0 1 1865.33 231.543)" fill="#457749" style="fill:#457749;fill:color(display-p3 0.2706 0.4667 0.2863);fill-opacity:1;"/>
<rect width="302.121" height="112.988" rx="56.4941" transform="matrix(-1 0 0 1 1980.85 268.298)" fill="#245155" style="fill:#245155;fill:color(display-p3 0.1412 0.3176 0.3333);fill-opacity:1;"/>
<rect width="302.121" height="112.988" rx="56.4941" transform="matrix(-1 0 0 1 2043.91 192.326)" fill="#245155" style="fill:#245155;fill:color(display-p3 0.1412 0.3176 0.3333);fill-opacity:1;"/>
</g>
<rect y="907.472" width="1920" height="172.528" fill="#1D3A4F" style="fill:#1D3A4F;fill:color(display-p3 0.1137 0.2275 0.3098);fill-opacity:1;"/>
<circle cx="63.1288" cy="63.1288" r="63.1288" transform="matrix(-1 0 0 1 1470.76 207.194)" fill="white" style="fill:white;fill-opacity:1;"/>
<rect width="243.093" height="88.0667" rx="44.0333" transform="matrix(-1 0 0 1 1530.99 269.274)" fill="white" style="fill:white;fill-opacity:1;"/>
<g opacity="0.2">
<circle cx="835.663" cy="242.197" r="35.0027" fill="white" style="fill:white;fill-opacity:1;"/>
<rect x="767.266" y="241.616" width="134.786" height="48.8298" rx="24.4149" fill="white" style="fill:white;fill-opacity:1;"/>
</g>
</g>
<defs>
<clipPath id="clip0_69_2572">
<rect width="1920" height="1080" fill="white" style="fill:white;fill-opacity:1;"/>
</clipPath>
</defs>
</svg>
